<svg width="16" height="16" viewBox="0 0 16 16" fill="none" xmlns="http://www.w3.org/2000/svg">
<mask id="mask0_702_5" style="mask-type:alpha" maskUnits="userSpaceOnUse" x="0" y="0" width="16" height="16">
<path d="M16 8C16 12.4183 12.4183 16 8 16C3.58172 16 0 12.4183 0 8C0 3.58172 3.58172 0 8 0C12.4183 0 16 3.58172 16 8Z" fill="#9DC4F1"/>
<path d="M16 8C16 12.4183 12.4183 16 8 16C3.58172 16 0 12.4183 0 8C0 3.58172 3.58172 0 8 0C12.4183 0 16 3.58172 16 8Z" fill="#9DC4F1"/>
<path d="M16 8C16 12.4183 12.4183 16 8 16C3.58172 16 0 12.4183 0 8C0 3.58172 3.58172 0 8 0C12.4183 0 16 3.58172 16 8Z" fill="#9DC4F1"/>
<path d="M16 8C16 12.4183 12.4183 16 8 16C3.58172 16 0 12.4183 0 8C0 3.58172 3.58172 0 8 0C12.4183 0 16 3.58172 16 8Z" fill="#9DC4F1"/>
</mask>
<g mask="url(#mask0_702_5)">
<path d="M16 8C16 12.4183 12.4183 16 8 16C3.58172 16 0 12.4183 0 8C0 3.58172 3.58172 0 8 0C12.4183 0 16 3.58172 16 8Z" fill="#9DC4F1"/>
<path d="M16 8C16 12.4183 12.4183 16 8 16C3.58172 16 0 12.4183 0 8C0 3.58172 3.58172 0 8 0C12.4183 0 16 3.58172 16 8Z" fill="#9DC4F1"/>
<path d="M25.1073 13.7216C25.1073 16.6876 14.2167 19.3883 9.69967 19.3883C5.18265 19.3883 1.52087 16.9839 1.52087 14.0178C1.52087 11.0518 12.4115 8.35107 16.9285 8.35107C21.4455 8.35107 25.1073 10.7555 25.1073 13.7216Z" fill="#C3EAF7"/>
<path d="M12.4247 12.9779C12.0893 16.1625 11.8523 16.6478 8.65024 16.6478C5.44819 16.6478 0.402675 17.793 3.09258 12.6477C4.00342 8.94596 5.08392 4.18945 8.28597 4.18945C11.488 4.18945 12.4247 9.59797 12.4247 12.9779Z" fill="white"/>
<path d="M7.29193 5.11182C7.63669 5.55227 7.512 6.2257 7.01342 6.61598C6.51483 7.00625 6.59517 7.51441 5.71972 6.71805C5.18841 7.00496 4.07008 5.35605 5.67079 4.23037C6.16937 3.84009 6.94716 4.67138 7.29193 5.11182Z" fill="white"/>
<path d="M7.70081 6.63895C7.54599 7.17463 7.9842 7.77181 8.67958 7.97279C9.37495 8.17377 9.52501 8.68375 10.066 7.6294C10.8901 8.049 12.6592 4.76597 10.4851 4.24164C9.78974 4.04066 7.85564 6.10327 7.70081 6.63895Z" fill="white"/>
<path d="M9.24067 9.31125C9.24067 10.1999 9.08765 10.4654 8.09781 10.566C7.05537 10.4654 6.95496 10.1999 6.95496 9.31125C6.95496 8.42257 7.46663 7.70215 8.09781 7.70215C8.729 7.70215 9.24067 8.42257 9.24067 9.31125Z" fill="#ECECEC"/>
<path d="M8.58259 9.65471C8.58259 9.97153 8.30983 10.2284 7.97336 10.2284C7.6369 10.2284 7.36414 9.97153 7.36414 9.65471C7.36414 9.33789 7.6369 9.08105 7.97336 9.08105C8.30983 9.08105 8.58259 9.33789 8.58259 9.65471Z" fill="black"/>
<path d="M7.09732 7.43729C7.09732 7.68771 6.97388 7.7025 6.82161 7.7025C6.66934 7.7025 6.5459 7.68771 6.5459 7.43729C6.5459 7.18687 6.66934 7.27162 6.82161 7.27162C6.97388 7.27162 7.09732 7.18687 7.09732 7.43729Z" fill="black"/>
<path d="M9.67654 7.46902C9.67654 7.71417 9.5531 7.7022 9.40083 7.7022C9.24856 7.7022 9.12512 7.71417 9.12512 7.46902C9.12512 7.22387 9.24856 7.28122 9.40083 7.28122C9.5531 7.28122 9.67654 7.22387 9.67654 7.46902Z" fill="black"/>
</g>
</svg>
